<svg xmlns="http://www.w3.org/2000/svg" width="28.929" height="21.19" viewBox="0 0 28.929 21.19">
  <g id="email" transform="translate(0 -24.61)">
    <path id="Path_20868" data-name="Path 20868" d="M25.273,24.61H3.656A3.66,3.66,0,0,0,0,28.266V42.144A3.66,3.66,0,0,0,3.656,45.8H25.273a3.66,3.66,0,0,0,3.656-3.656V28.266A3.66,3.66,0,0,0,25.273,24.61ZM24.7,26.968,14.464,34.876,4.227,26.968Zm.571,16.474H3.656a1.3,1.3,0,0,1-1.3-1.3V28.5L13.743,37.3a1.18,1.18,0,0,0,1.442,0L26.57,28.5V42.144A1.3,1.3,0,0,1,25.273,43.442Z" fill="#b9bccc"/>
  </g>
</svg>
