<svg xmlns="http://www.w3.org/2000/svg" width="21.76" height="29.013" viewBox="0 0 21.76 29.013">
  <g id="padlock" transform="translate(-3)">
    <path id="Path_20869" data-name="Path 20869" d="M22.04,27.133H5.72A2.723,2.723,0,0,1,3,24.413V11.72A2.723,2.723,0,0,1,5.72,9H22.04a2.723,2.723,0,0,1,2.72,2.72V24.413A2.723,2.723,0,0,1,22.04,27.133ZM5.72,10.813a.908.908,0,0,0-.907.907V24.413a.908.908,0,0,0,.907.907H22.04a.908.908,0,0,0,.907-.907V11.72a.908.908,0,0,0-.907-.907Z" transform="translate(0 1.88)" fill="#b9bccc"/>
    <path id="Path_20870" data-name="Path 20870" d="M19.6,12.693a.907.907,0,0,1-.907-.907V7.253a5.44,5.44,0,0,0-10.88,0v4.533a.907.907,0,1,1-1.813,0V7.253a7.253,7.253,0,1,1,14.507,0v4.533A.907.907,0,0,1,19.6,12.693Z" transform="translate(0.627)" fill="#b9bccc"/>
    <path id="Path_20871" data-name="Path 20871" d="M12.418,17.836a2.418,2.418,0,1,1,2.418-2.418A2.42,2.42,0,0,1,12.418,17.836Zm0-3.022a.6.6,0,1,0,.6.6A.605.605,0,0,0,12.418,14.813Z" transform="translate(1.462 2.715)" fill="#b9bccc"/>
    <path id="Path_20872" data-name="Path 20872" d="M12.157,20.888a.907.907,0,0,1-.907-.907V16.657a.907.907,0,1,1,1.813,0v3.324A.907.907,0,0,1,12.157,20.888Z" transform="translate(1.723 3.29)" fill="#b9bccc"/>
  </g>
</svg>
