<svg id="place" xmlns="http://www.w3.org/2000/svg" width="15.307" height="18.92" viewBox="0 0 15.307 18.92">
  <g id="Group_8028" data-name="Group 8028">
    <g id="Group_8027" data-name="Group 8027">
      <path id="Path_20864" data-name="Path 20864" d="M62.819,3.29a7.639,7.639,0,0,0-12.56,0,7.64,7.64,0,0,0-.89,7.039,6.017,6.017,0,0,0,1.109,1.831l5.557,6.527a.661.661,0,0,0,1.007,0L62.6,12.162a6.023,6.023,0,0,0,1.109-1.828A7.642,7.642,0,0,0,62.819,3.29Zm-.351,6.58A4.719,4.719,0,0,1,61.6,11.3l0,0-5.053,5.935L51.483,11.3a4.722,4.722,0,0,1-.874-1.434,6.32,6.32,0,0,1,.739-5.823,6.316,6.316,0,0,1,10.383,0A6.321,6.321,0,0,1,62.468,9.87Z" transform="translate(-48.886)" fill="#000118"/>
    </g>
  </g>
  <g id="Group_8030" data-name="Group 8030" transform="translate(3.949 3.925)">
    <g id="Group_8029" data-name="Group 8029">
      <path id="Path_20865" data-name="Path 20865" d="M159.459,106.219a3.7,3.7,0,1,0,3.7,3.7A3.709,3.709,0,0,0,159.459,106.219Zm0,6.086a2.382,2.382,0,1,1,2.382-2.382A2.384,2.384,0,0,1,159.459,112.305Z" transform="translate(-155.754 -106.219)" fill="#000118"/>
    </g>
  </g>
</svg>
